<?xml version="1.0" encoding="utf-8"?>
<!-- Generator: Adobe Illustrator 24.0.0, SVG Export Plug-In . SVG Version: 6.00 Build 0)  -->
<svg version="1.1" id="Layer_1" xmlns="http://www.w3.org/2000/svg" xmlns:xlink="http://www.w3.org/1999/xlink" x="0px" y="0px"
	 viewBox="0 0 1500 1500" style="enable-background:new 0 0 1500 1500;" xml:space="preserve">
<g>
	<path d="M389,699h7.89l15.79,72.25L428.01,699h7.74l-23.07,103.66L389,699z"/>
	<path d="M459.12,800.24V699h7.44v101.24H459.12z"/>
	<path d="M524.99,800.24v-77.1l-21.4-12.75v89.85h-7.44V697.33l28.84,17.3V699h7.44v101.24H524.99z"/>
	<path d="M567.64,800.24v-93.8h-11.99V699h31.11v7.44h-11.69v93.8H567.64z"/>
	<path d="M635.03,800.24v-69.06h-17v69.06h-7.44v-69.06h-3.95l-2.43-7.28h6.37c0-8.6,0.61-14.47,1.82-17.61
		c2.22-5.77,6.93-8.65,14.12-8.65c5.77,0,9.97,1.92,12.6,5.77c2.22,3.24,3.34,7.84,3.34,13.81v83.02H635.03z M635.03,714.64
		c0-2.83-0.66-5.13-1.97-6.91c-1.32-1.77-3.34-2.66-6.07-2.66c-2.83,0-5.03,0.89-6.6,2.66c-1.57,1.77-2.35,4.12-2.35,7.06v9.11h17
		V714.64z"/>
	<path d="M667.81,749.39c0-14.27,4.83-26.23,14.49-35.9c9.66-9.66,21.58-14.49,35.74-14.49v7.29c-12.04,0-22.19,4.07-30.43,12.22
		c-8.25,8.15-12.37,18.49-12.37,31.04c0,10.63,3.24,19.73,9.71,27.32c6.47,7.59,15.03,12.55,25.65,14.87v-67.39h7.44v75.89
		c-14.57-1.52-26.41-6.58-35.52-15.18C672.72,775.75,667.81,763.86,667.81,749.39z"/>
	<path d="M747.04,800.24v-68.91h-3.79l-2.73-7.29h6.53V699h25.95v7.44h-18.52v17.61h17.61l2.73,7.29h-20.34v61.47h18.52v7.44H747.04
		z"/>
	<path d="M841.45,699h7.89l15.79,72.25L880.45,699h7.74l-23.07,103.66L841.45,699z"/>
	<path d="M936.46,800.24v-69.06h-17v69.06h-7.44v-69.06h-3.95l-2.43-7.28h6.37c0-8.6,0.61-14.47,1.82-17.61
		c2.22-5.77,6.93-8.65,14.12-8.65c5.77,0,9.97,1.92,12.6,5.77c2.22,3.24,3.34,7.84,3.34,13.81v83.02H936.46z M936.46,714.64
		c0-2.83-0.66-5.13-1.97-6.91c-1.32-1.77-3.34-2.66-6.07-2.66c-2.83,0-5.04,0.89-6.6,2.66c-1.57,1.77-2.35,4.12-2.35,7.06v9.11h17
		V714.64z"/>
	<path d="M1008.1,782.03c0,5.67-1.44,10.35-4.33,14.04c-2.88,3.69-7.11,5.54-12.67,5.54c-5.67,0-10.02-1.85-13.05-5.54
		c-3.03-3.69-4.55-8.47-4.55-14.34V699h7.44v82.42c0,3.74,0.73,6.81,2.2,9.18c1.47,2.38,4.02,3.57,7.67,3.57
		c3.64,0,6.22-1.14,7.74-3.42c1.52-2.28,2.28-5.34,2.28-9.18V699h7.29V782.03z"/>
	<path d="M1037.69,800.24V699h7.44v93.8h18.97v7.44H1037.69z"/>
	<path d="M1091.88,800.24v-93.8h-11.99V699H1111v7.44h-11.69v93.8H1091.88z"/>
</g>
</svg>
